<svg width="29" height="39" viewBox="0 0 29 39" fill="none" xmlns="http://www.w3.org/2000/svg">
<path d="M13.4444 8H19.6667L22.7778 8.35227L26.7778 8L28.5556 9.40909L29 12.2273L27.2222 13.9886L26.3333 14.3409H23.6667L21 12.9318L19.6667 11.875H15.2222V13.9886L17 15.3977L23.2222 17.8636L26.7778 20.6818L28.5556 23.5L29 24.9091V29.4886L27.2222 33.3636L23.2222 36.8864L19.2222 38.6477L17.4444 39H10.7778L6.77778 37.9432L2.33333 35.125L1 33.7159V33.0114L6.77778 32.6591L8.11111 33.3636V34.0682L10.7778 34.7727H17L21 32.6591L23.2222 29.8409L23.6667 28.7841V25.6136L21.8889 22.4432L18.3333 19.9773L12.1111 17.5114L10.3333 15.75L9.44444 13.6364L9.88889 10.8182L12.5556 8.35227L13.4444 8Z" fill="white"/>
<path d="M13.7778 0L18.6667 0.348315L24 2.4382L27.5556 5.22472L28 6.26966L22.2222 6.61798L19.5556 4.8764L14.6667 4.17978L10.2222 5.22472L7.55556 6.96629L5.77778 10.1011V14.2809L7.11111 16.3708L8.88889 18.1124L16 20.8989L18.6667 22.6404L19.5556 24.382V27.1685L18.2222 29.6067L15.5556 31H9.77778L5.77778 29.6067V30.3034H1.77778L0.444444 29.2584L0 28.5618V26.1236L1.33333 24.7303L4.44444 24.382L7.11111 25.427L8.88889 27.1685L12.4444 27.5169L13.7778 27.1685L14.2222 24.7303L7.55556 21.9438L4.44444 20.2022L1.77778 17.4157L0.444444 15.3258L0 13.5843V10.4494L0.888889 7.31461L3.55556 4.17978L7.11111 1.74157L11.1111 0.348315L13.7778 0Z" fill="white"/>
</svg>
